#!OML:ASF I:\Actors\actors\Patient Classification 2\Patient 1\Session 1\actor1.ASF
:FULLY-SPECIFIED
:DEGREES
96
root -0.997344 18.1937 5.58368 0.803759 -0.343588 -5.12706
lowerback 3.41436 -0.238809 3.10434
upperback -1.32958 -0.113289 1.86376
thorax -3.2879 -0.101316 0.185573
lowerneck -11.0499 -1.74583 -1.54738
upperneck 15.7379 -2.81828 4.0796
head 6.69741 -1.10953 1.31072
rclavicle 1.54625e-015 -7.61827e-015
rhumerus -46.8179 -0.492507 -86.3798
rradius 39.2232
rwrist 19.1448
rhand -7.36715 -26.6049
rfingers 7.12502
rthumb 18.5177 -55.7435
lclavicle 1.54625e-015 -7.61827e-015
lhumerus -16.3749 -25.4981 90.1168
lradius 87.6255
lwrist 26.1345
lhand -21.9146 -28.6604
lfingers 7.12502
lthumb 4.49125 1.27202
rfemur 0 0 0
rtibia 0
rfoot 0 0
rtoes 0
lfemur 15.9162 -7.08683 -11.3902
ltibia -18.4786
lfoot -2.78369 18.7356
ltoes -11.3229
97
root -1.0004 18.195 5.57415 0.789093 -0.239222 -5.14471
lowerback 3.49377 -0.40574 3.14955
upperback -1.37975 -0.326548 1.92142
thorax -3.38892 -0.209193 0.234133
lowerneck -11.2392 -1.52212 -1.43661
upperneck 16.0657 -2.51758 3.9296
head 6.82322 -0.964822 1.27142
rclavicle 6.55659e-015 -1.93815e-015
rhumerus -46.6507 -0.488197 -86.2265
rradius 39.0172
rwrist 19.3108
rhand -7.35961 -26.6133
rfingers 7.12502
rthumb 18.5249 -55.7512
lclavicle 6.55659e-015 -1.93815e-015
lhumerus -11.4154 -25.1241 88.1326
lradius 87.2323
lwrist 26.0423
lhand -21.7047 -28.264
lfingers 7.12502
lthumb 4.69387 1.66398
rfemur 0 0 0
rtibia 0
rfoot 0 0
rtoes 0
lfemur 15.8479 -7.01801 -11.337
ltibia -18.463
lfoot -2.70088 18.5987
ltoes -11.4858
98
root -1.00222 18.1968 5.56508 0.804917 -0.242257 -5.16949
lowerback 3.59488 -0.593341 3.17684
upperback -1.46052 -0.564655 2.02006
thorax -3.53372 -0.329177 0.33803
lowerneck -11.3126 -1.26509 -1.28111
upperneck 16.3155 -2.15598 3.66488
head 6.90129 -0.800795 1.19422
rclavicle 6.64997e-015 -1.74931e-014
rhumerus -46.5127 -0.392219 -86.0964
rradius 38.9505
rwrist 19.3138
rhand -7.39757 -26.672
rfingers 7.12502
rthumb 18.4884 -55.8134
lclavicle 6.64997e-015 -1.74931e-014
lhumerus -6.85002 -24.3892 86.3934
lradius 86.5144
lwrist 26.2849
lhand -21.4832 -27.3542
lfingers 7.12502
lthumb 4.90783 2.569
rfemur 0 0 0
rtibia 0
rfoot 0 0
rtoes 0
lfemur 15.7775 -6.97635 -11.291
ltibia -18.4468
lfoot -2.67335 18.5664
ltoes -11.5714
99
root -1.00501 18.1979 5.55916 0.802469 -0.313373 -5.17221
lowerback 3.72108 -0.790621 3.12901
upperback -1.51211 -0.818052 2.15135
thorax -3.66052 -0.454109 0.51992
lowerneck -11.3755 -0.994709 -1.05764
upperneck 16.4461 -1.75829 3.25808
head 6.93809 -0.629369 1.06306
rclavicle 1.08571e-014 -3.27995e-015
rhumerus -46.3689 -0.225141 -85.9902
rradius 39.0238
rwrist 19.2266
rhand -7.52241 -26.5532
rfingers 7.12502
rthumb 18.3683 -55.706
lclavicle 1.08571e-014 -3.27995e-015
lhumerus -2.59467 -23.4513 84.8764
lradius 85.3884
lwrist 26.8174
lhand -21.4655 -26.5321
lfingers 7.12502
lthumb 4.92487 3.3907
rfemur 0 0 0
rtibia 0
rfoot 0 0
rtoes 0
lfemur 15.7613 -6.97174 -11.2775
ltibia -18.4111
lfoot -2.70647 18.5891
ltoes -11.4593
100
root -1.00872 18.1977 5.55526 0.77003 -0.458599 -5.17402
lowerback 3.93843 -0.984619 3.06667
upperback -1.54269 -1.0639 2.28906
thorax -3.81504 -0.574669 0.718936
lowerneck -11.6079 -0.703499 -0.839731
upperneck 16.5849 -1.33014 2.84985
head 7.0095 -0.442715 0.935033
rclavicle -1.35779e-014 3.16068e-014
rhumerus -46.2512 -0.00227004 -85.9371
rradius 39.2314
rwrist 19.0417
rhand -7.52062 -26.3689
rfingers 7.12502
rthumb 18.3701 -55.5215
lclavicle -1.35779e-014 3.16068e-014
lhumerus 1.39969 -22.3349 83.5272
lradius 83.7871
lwrist 27.3081
lhand -21.0721 -25.938
lfingers 7.12502
lthumb 5.30478 3.97564
rfemur 0 0 0
rtibia 0
rfoot 0 0
rtoes 0
lfemur 15.7977 -6.88643 -11.2629
ltibia -18.3525
lfoot -2.76098 18.5733
ltoes -10.9944
101
root -1.01143 18.1968 5.55187 0.738691 -0.694956 -5.14263
lowerback 4.21865 -1.16891 3.01149
upperback -1.57089 -1.29414 2.4072
thorax -4.0015 -0.687753 0.896011
lowerneck -11.9846 -0.404509 -0.606898
upperneck 16.776 -0.896768 2.45046
head 7.1262 -0.251416 0.808635
rclavicle 1.35577e-015 -1.31198e-014
rhumerus -46.1274 0.274116 -85.9467
rradius 39.5234
rwrist 18.7141
rhand -7.39537 -26.4725
rfingers 7.12502
rthumb 18.4905 -55.6137
lclavicle 1.35577e-015 -1.31198e-014
lhumerus 5.11663 -21.0696 82.3457
lradius 81.8243
lwrist 27.5427
lhand -20.2678 -25.2961
lfingers 7.12502
lthumb 6.08129 4.59663
rfemur 0 0 0
rtibia 0
rfoot 0 0
rtoes 0
lfemur 15.8545 -6.74035 -11.2903
ltibia -18.2814
lfoot -2.85431 18.576
ltoes -10.4938
102
root -1.01177 18.1969 5.54949 0.773107 -1.02182 -5.14327
lowerback 4.25591 -1.34981 2.92983
upperback -1.47561 -1.53556 2.59129
thorax -3.91841 -0.802422 1.14956
lowerneck -12.4029 -0.0668283 -0.287964
upperneck 16.8193 -0.403587 1.93827
head 7.2042 -0.0382048 0.637687
rclavicle -1.56776e-014 -7.7526e-015
rhumerus -45.7906 0.729655 -85.9907
rradius 39.8254
rwrist 18.3422
rhand -7.49524 -26.5981
rfingers 7.12502
rthumb 18.3945 -55.7483
lclavicle -1.56776e-014 -7.7526e-015
lhumerus 8.74513 -19.6754 81.3008
lradius 79.5679
lwrist 27.6586
lhand -19.5768 -24.5726
lfingers 7.12502
lthumb 6.74836 5.29987
rfemur 0 0 0
rtibia 0
rfoot 0 0
rtoes 0
lfemur 15.8682 -6.64125 -11.2963
ltibia -18.1928
lfoot -3.02738 18.7116
ltoes -10.2558
103
root -1.01153 18.1966 5.54826 0.831081 -1.43558 -5.19061
lowerback 3.92894 -1.55306 2.73348
upperback -1.12389 -1.83647 2.92471
thorax -3.35305 -0.940105 1.60723
lowerneck -12.9481 0.330519 -0.103767
upperneck 16.6381 0.206544 1.393
head 7.23458 0.217601 0.490589
rclavicle -2.21917e-014 2.3059e-014
rhumerus -45.0775 1.60118 -86.022
rradius 40.123
rwrist 17.8774
rhand -7.75259 -26.4946
rfingers 7.12502
rthumb 18.1469 -55.6681
lclavicle -2.21917e-014 2.3059e-014
lhumerus 12.4062 -18.0129 80.3974
lradius 77.0577
lwrist 27.7557
lhand -19.0702 -23.9516
lfingers 7.12502
lthumb 7.23742 5.90463
rfemur 0 0 0
rtibia 0
rfoot 0 0
rtoes 0
lfemur 15.8789 -6.56746 -11.2619
ltibia -18.0937
lfoot -3.25995 18.9599
ltoes -9.92035
104
root -1.01356 18.1937 5.54886 0.829581 -1.84496 -5.17693
lowerback 4.47644 -1.69755 2.91382
upperback -1.34207 -1.98055 3.00411
thorax -3.89123 -1.01766 1.62408
lowerneck -13.2314 0.603406 0.0594418
upperneck 16.954 0.608423 1.04076
head 7.38593 0.389237 0.391566
rclavicle -1.91097e-014 7.55382e-015
rhumerus -45.4073 2.20119 -86.2225
rradius 40.6309
rwrist 17.3932
rhand -8.25627 -25.937
rfingers 7.12502
rthumb 17.6622 -55.1548
lclavicle -1.91097e-014 7.55382e-015
lhumerus 14.8418 -16.8623 79.775
lradius 74.4854
lwrist 27.9296
lhand -18.6181 -23.4048
lfingers 7.12502
lthumb 7.67382 6.43596
rfemur 0 0 0
rtibia 0
rfoot 0 0
rtoes 0
lfemur 15.9559 -6.41572 -11.2858
ltibia -17.9982
lfoot -3.43881 19.1103
ltoes -9.41951
105
root -1.01588 18.1914 5.5496 0.847915 -2.22758 -5.16521
lowerback 4.76125 -1.84674 2.99307
upperback -1.35685 -2.15532 3.12091
thorax -4.06555 -1.1057 1.72626
lowerneck -13.7538 0.884774 0.353409
upperneck 17.2027 1.01324 0.592473
head 7.56166 0.560382 0.241693
rclavicle -5.72821e-015 3.97569e-015
rhumerus -45.3734 2.85629 -86.4481
rradius 41.1167
rwrist 16.8516
rhand -8.37467 -25.5804
rfingers 7.12502
rthumb 17.5483 -54.8084
lclavicle -5.72821e-015 3.97569e-015
lhumerus 17.3646 -15.6037 79.2395
lradius 71.7134
lwrist 28.1129
lhand -18.3139 -22.9862
lfingers 7.12502
lthumb 7.96737 6.84369
rfemur 0 0 0
rtibia 0
rfoot 0 0
rtoes 0
lfemur 16.0014 -6.16633 -11.2888
ltibia -17.8966
lfoot -3.58061 19.1336
ltoes -8.93963
